<?xml version="1.0" standalone="no"?>
<!DOCTYPE svg PUBLIC "-//W3C//DTD SVG 20010904//EN"
 "http://www.w3.org/TR/2001/REC-SVG-20010904/DTD/svg10.dtd">
<svg version="1.0" xmlns="http://www.w3.org/2000/svg"
 width="600.000000pt" height="600.000000pt" viewBox="0 0 600.000000 600.000000"
 preserveAspectRatio="xMidYMid meet">

<g transform="translate(0.000000,600.000000) scale(0.100000,-0.100000)"
fill="#000000" stroke="none">
<path d="M1730 5233 c-83 -8 -231 -37 -300 -60 -326 -104 -607 -354 -765 -678
-57 -117 -101 -252 -127 -395 -29 -159 -31 -453 -4 -590 91 -468 374 -842 946
-1251 58 -41 200 -141 315 -222 299 -208 499 -371 768 -627 176 -167 363 -384
414 -482 l20 -37 23 42 c50 91 162 221 364 423 302 301 501 466 876 724 394
271 578 417 743 589 263 275 407 546 463 878 13 76 15 137 11 292 -6 214 -23
320 -78 486 -135 407 -451 727 -837 849 -393 124 -858 65 -1188 -149 -106 -68
-258 -219 -327 -323 l-49 -73 -56 82 c-168 245 -426 417 -736 489 -142 33
-338 47 -476 33z m2435 -144 c109 -13 226 -46 326 -92 84 -38 213 -117 205
-125 -3 -2 -12 1 -20 7 -9 7 -24 10 -37 6 -12 -4 -19 -3 -16 2 7 11 13 10
-208 19 -149 6 -199 4 -285 -10 -285 -48 -537 -173 -736 -367 -66 -63 -184
-201 -184 -214 0 -4 -10 -21 -22 -37 -20 -29 -22 -30 -35 -12 -16 22 -17 10
-1 -19 10 -20 10 -21 -5 -9 -9 8 -21 11 -27 7 -5 -3 -10 2 -11 12 0 16 -1 16
-10 -2 -21 -44 2 133 27 210 80 247 237 428 466 535 176 82 375 113 573 89z
m-2060 -75 c142 -23 341 -86 329 -105 -3 -6 -12 -8 -20 -5 -21 8 -281 -21
-395 -45 -281 -56 -556 -198 -766 -394 -109 -102 -188 -198 -289 -351 -41 -63
-77 -114 -80 -114 -3 0 -2 5 1 10 15 24 -34 6 -69 -26 -30 -26 -41 -32 -47
-22 -7 10 -9 10 -9 1 0 -7 -4 -13 -10 -13 -15 0 -12 105 5 201 73 422 377 730
829 845 164 42 332 47 521 18z m3216 -1128 c6 -6 9 -4 9 5 1 10 3 9 11 -4 17
-28 12 -290 -6 -385 -68 -351 -289 -657 -698 -966 -48 -36 -204 -143 -345
-237 -141 -95 -286 -192 -322 -217 -192 -136 -472 -379 -634 -553 -38 -41 -64
-65 -58 -53 6 11 24 35 40 52 16 17 27 33 25 36 -3 3 4 11 16 18 12 7 21 17
21 21 0 12 113 142 219 252 101 105 271 260 357 325 32 25 61 48 64 51 3 3 96
74 207 157 280 211 410 319 538 447 309 309 457 607 472 953 3 74 9 129 12
124 3 -5 16 -11 29 -14 17 -5 22 -2 23 15 1 21 2 21 6 2 3 -11 9 -24 14 -29z"/>
<path d="M3175 4310 c4 -6 1 -17 -5 -25 -7 -9 -8 -15 -2 -15 10 0 22 23 22 41
0 5 -5 9 -11 9 -5 0 -7 -5 -4 -10z"/>
<path d="M895 4039 c-4 -6 -5 -12 -2 -15 2 -3 7 2 10 11 7 17 1 20 -8 4z"/>
</g>
</svg>
